<svg width="182" height="38" viewBox="0 0 182 38" fill="none" xmlns="http://www.w3.org/2000/svg">
<path d="M67.2425 6.84785H64.6444C62.8394 6.84785 61.5374 7.17773 60.549 7.88662C59.2061 8.85052 58.5241 10.5268 58.5241 12.8699V15.1311H55.168V18.403H58.5241V32.9177H61.9223V18.403H67.3267V15.1311H61.9223V12.8699C61.9223 10.5865 63.0102 10.1186 64.6444 10.1186H67.3279V6.84668H67.2425V6.84785Z" fill="#280071"/>
<path d="M70.1225 15.1318H70.0371V32.9184H73.4353V15.1318H70.1225Z" fill="#280071"/>
<path d="M71.7368 6.52148C70.4442 6.52148 69.3926 7.58482 69.3926 8.89147C69.3926 10.1981 70.4442 11.2614 71.7368 11.2614C73.0294 11.2614 74.0811 10.1981 74.0811 8.89147C74.0811 7.58482 73.0294 6.52148 71.7368 6.52148Z" fill="#280071"/>
<path d="M90.0798 15.8933C88.3907 14.9411 87.1179 14.3164 84.907 14.3164C83.8063 14.3164 82.8026 14.6849 81.8317 15.0428C80.9766 15.3575 80.1694 15.6546 79.3892 15.6546C78.9949 15.6546 78.4545 15.3096 78.0825 15.0499L77.3409 14.5281L77.2707 14.479L77.2216 14.5492L75.3499 17.2233L75.2949 17.3017L75.3768 17.3497L75.8283 17.6105C77.1385 18.3674 78.141 19.0973 78.141 20.9924V32.9195H81.5392V20.9924C81.5392 20.0975 81.4304 19.3137 81.207 18.6037C81.5638 18.4925 81.9182 18.3615 82.261 18.2352C83.1617 17.903 84.0122 17.5895 84.9059 17.5895C86.4207 17.5895 87.3542 18.0843 88.5076 18.7838L88.5837 18.8306L88.627 18.7511L90.1114 16.0114L90.1524 15.9354L90.0775 15.8933H90.0798Z" fill="#280071"/>
<path d="M98.1273 17.4587C100.206 17.4587 102.327 18.2073 103.8 19.4602L103.866 19.5163L103.921 19.4485L105.874 17.068L105.93 16.9989L105.86 16.944C103.745 15.284 100.932 14.333 98.1436 14.333C96.2825 14.333 94.5992 14.7845 93.4048 15.6034C92.0058 16.5626 91.2653 18.0202 91.2653 19.8181C91.2653 21.6161 92.0959 22.8689 93.7335 23.7954C94.9185 24.4657 96.5656 24.902 98.2524 24.9933C101.081 25.1336 102.398 25.9572 102.398 27.5808C102.398 28.3599 102.023 29.0676 101.342 29.5765C100.607 30.1239 99.5743 30.414 98.353 30.414C96.0041 30.414 94.6635 29.8116 92.3766 27.7294L92.3123 27.6709L92.2549 27.7376L90.271 30.0374L90.2148 30.1017L90.278 30.159C93.0153 32.6238 95.204 33.5409 98.3542 33.5409C100.209 33.5409 102.034 33.018 103.36 32.1067C104.933 31.0247 105.765 29.4607 105.765 27.5832C105.765 25.7057 104.949 24.1767 103.341 23.2058C101.81 22.2805 99.8562 22.0045 98.4876 21.9354C97.9272 21.9109 96.8592 21.8161 95.9959 21.464C95.0905 21.0955 94.6319 20.5422 94.6319 19.8193C94.6319 17.7663 96.8218 17.4598 98.1284 17.4598L98.1273 17.4587Z" fill="#280071"/>
<path d="M144.111 17.3944C142.434 15.4339 140.058 14.3986 137.24 14.3986C135.604 14.3986 134.043 14.842 132.712 15.6807V6.84766H129.313V26.9937C129.313 28.5589 128.74 29.0736 127.931 29.6292L126.608 30.5428L126.535 30.5931L126.587 30.6656L128.458 33.3082L128.507 33.3772L128.576 33.3292L129.286 32.8403C129.641 32.6016 130.496 32.3338 131.11 32.3338C131.845 32.3338 132.665 32.5771 133.534 32.8356C134.594 33.1503 135.795 33.5082 137.112 33.5082C139.994 33.5082 142.41 32.4788 144.103 30.5311C145.601 28.8057 146.427 26.4778 146.427 23.9792C146.427 21.4805 145.605 19.1409 144.114 17.3968L144.111 17.3944ZM132.71 26.9609V19.348C133.776 18.2706 135.372 17.6541 137.094 17.6541C141.181 17.6541 143.042 20.9061 143.042 23.9277C143.042 25.5958 142.511 27.1528 141.547 28.312C140.466 29.6117 138.931 30.2995 137.109 30.2995C136.186 30.2995 135.285 30.0433 134.329 29.7731C133.709 29.5976 133.068 29.4151 132.411 29.3052C132.598 28.663 132.708 27.7973 132.708 26.9609H132.71Z" fill="#280071"/>
<path d="M173.588 17.4587C175.667 17.4587 177.788 18.2073 179.26 19.4602L179.327 19.5163L179.382 19.4485L181.335 17.068L181.391 16.9989L181.32 16.944C179.206 15.284 176.393 14.333 173.605 14.333C171.743 14.333 170.06 14.7845 168.866 15.6034C167.467 16.5626 166.726 18.0202 166.726 19.8181C166.726 21.6161 167.557 22.8689 169.194 23.7954C170.379 24.4657 172.027 24.902 173.713 24.9933C176.542 25.1336 177.859 25.9572 177.859 27.5808C177.859 28.3599 177.484 29.0676 176.803 29.5765C176.068 30.1239 175.035 30.414 173.814 30.414C171.465 30.414 170.124 29.8116 167.838 27.7294L167.773 27.6709L167.716 27.7376L165.732 30.0374L165.676 30.1017L165.739 30.159C168.476 32.6238 170.665 33.5409 173.815 33.5409C175.67 33.5409 177.495 33.018 178.821 32.1067C180.394 31.0247 181.226 29.4607 181.226 27.5832C181.226 25.7057 180.41 24.1767 178.802 23.2058C177.271 22.2805 175.317 22.0045 173.948 21.9354C173.388 21.9109 172.321 21.8161 171.457 21.464C170.551 21.0955 170.093 20.5422 170.093 19.8193C170.093 17.7663 172.283 17.4598 173.589 17.4598L173.588 17.4587Z" fill="#280071"/>
<path d="M47.3412 18.2657C47.147 13.2029 45.0086 8.51441 41.3191 5.06238C37.6296 1.61151 32.8405 -0.182938 27.8315 0.0147551C17.4754 0.42067 9.37582 9.26658 9.77706 19.7362C9.77706 19.7373 9.77706 19.7397 9.77706 19.7408C6.55547 20.8439 3.39354 22.1389 0.324029 23.6175L0 23.7731L1.41427 26.7724L1.7383 26.6168C4.4908 25.2915 7.32168 24.117 10.2052 23.1051C10.9983 26.742 12.8349 30.0689 15.5476 32.6997C19.071 36.1178 23.6881 38 28.5498 38C28.7931 38 29.0411 37.9953 29.2867 37.986C34.3039 37.7894 38.9445 35.63 42.3544 31.9054C45.7643 28.1808 47.5354 23.3367 47.3412 18.2657ZM27.959 3.33694C28.1602 3.32876 28.3649 3.32525 28.5673 3.32525C30.1722 3.32525 31.7444 3.57441 33.2406 4.05402C31.149 6.3854 29.2961 8.9367 27.718 11.6681C27.1916 12.5794 26.6898 13.5223 26.2242 14.4721C25.9797 14.9728 25.7446 15.4758 25.5188 15.9811C22.2902 16.435 19.0909 17.069 15.9406 17.8879C14.9744 18.1394 14.0117 18.4084 13.0536 18.6939C13.2092 10.4621 19.7167 3.6598 27.959 3.33811V3.33694ZM21.5732 32.9968C20.215 32.3008 18.9517 31.3989 17.824 30.3052C15.5067 28.058 13.9637 25.1967 13.3496 22.0734C14.4808 21.726 15.6178 21.4031 16.7595 21.106C19.1774 20.4778 21.6258 19.9608 24.0952 19.556C22.5757 23.8889 21.7323 28.3867 21.5732 32.998V32.9968ZM39.9411 29.6489C37.1278 32.7219 33.2979 34.5047 29.1592 34.6661C28.9557 34.6743 28.7568 34.6778 28.5509 34.6778C27.2852 34.6778 26.0382 34.5222 24.8345 34.2216C24.8801 28.9798 25.8768 23.8877 27.8046 19.0319C30.7256 18.688 33.6687 18.5009 36.6189 18.4704L36.9745 18.4669V15.1436L36.6119 15.1471C34.194 15.1705 31.7807 15.2992 29.3791 15.5261C29.7511 14.7868 30.1453 14.0533 30.5559 13.3421C32.2018 10.4937 34.1671 7.85582 36.4095 5.48467C37.4413 6.09997 38.4087 6.83928 39.2931 7.69673C42.2082 10.5241 43.8997 14.3236 44.0552 18.3932C44.2155 22.5776 42.7544 26.5747 39.9411 29.6477V29.6489Z" fill="#280071"/>
<path d="M160.985 15.1328V25.8282C160.985 27.3723 160.579 28.5526 159.778 29.3328C158.976 30.1142 157.834 30.5096 156.383 30.5096C154.932 30.5096 153.819 30.1131 153.018 29.3328C152.216 28.5526 151.81 27.3734 151.81 25.8282V15.1328H148.412V25.7685C148.412 27.4448 148.769 28.8848 149.472 30.0499C150.175 31.215 151.141 32.0959 152.341 32.6679C153.54 33.2399 154.89 33.53 156.355 33.53C157.82 33.53 159.173 33.2399 160.383 32.6679C161.593 32.0959 162.574 31.215 163.296 30.0499C164.019 28.8848 164.386 27.4448 164.386 25.7685V15.1328H160.987H160.985Z" fill="#280071"/>
<path d="M118.834 15.1321H114.434V6.84766H111.036V11.99C111.036 14.0855 110.011 15.1329 107.96 15.1321H107.713V18.404H111.036V26.8954C111.036 29.2397 111.717 30.916 113.061 31.8787C114.05 32.5876 115.352 32.9175 117.157 32.9175H118.921V29.6456H117.157C115.524 29.6456 114.434 29.1777 114.434 26.8943V18.4028H118.919V15.1309H118.834V15.1321Z" fill="#280071"/>
</svg>
